<svg width="8" height="6" viewBox="0 0 8 6" fill="none" xmlns="http://www.w3.org/2000/svg">
<path d="M2.644 4.3875L6.8815 0.15C6.9815 0.05 7.09817 0 7.2315 0C7.36483 0 7.4815 0.05 7.5815 0.15C7.6815 0.25 7.7315 0.36875 7.7315 0.50625C7.7315 0.64375 7.6815 0.7625 7.5815 0.8625L2.994 5.4625C2.894 5.5625 2.77733 5.6125 2.644 5.6125C2.51067 5.6125 2.394 5.5625 2.294 5.4625L0.144 3.3125C0.044 3.2125 -0.00391667 3.09375 0.00025 2.95625C0.00441667 2.81875 0.0565 2.7 0.1565 2.6C0.2565 2.5 0.37525 2.45 0.51275 2.45C0.65025 2.45 0.769 2.5 0.869 2.6L2.644 4.3875Z" fill="white"/>
</svg>
